<svg width="206" height="51" viewBox="0 0 206 51" fill="none" xmlns="http://www.w3.org/2000/svg">
<path d="M49.1425 36.76H49.2625C49.3905 36.76 49.5025 36.72 49.5985 36.64C49.6945 36.544 49.7745 36.432 49.8385 36.304C49.9185 36.176 49.9745 36.04 50.0065 35.896C50.0545 35.752 50.0785 35.616 50.0785 35.488V22.648C50.0785 22.536 50.0545 22.408 50.0065 22.264C49.9745 22.12 49.9185 21.984 49.8385 21.856C49.7745 21.728 49.6945 21.624 49.5985 21.544C49.5025 21.448 49.3905 21.4 49.2625 21.4H49.1425V21.16H58.3825V23.392H58.1425C58.1105 23.024 57.9665 22.704 57.7105 22.432C57.4545 22.144 57.0545 22 56.5105 22H51.6865V28.072H55.6705C56.0385 28.072 56.3425 27.96 56.5825 27.736C56.8385 27.512 56.9665 27.248 56.9665 26.944H57.2065V29.944H56.9665C56.9665 29.656 56.8465 29.408 56.6065 29.2C56.3665 28.992 56.0545 28.888 55.6705 28.888H51.6865V36.16H56.9425C57.2465 36.16 57.5105 36.088 57.7345 35.944C57.9585 35.8 58.1425 35.632 58.2865 35.44C58.4465 35.232 58.5585 35.016 58.6225 34.792C58.7025 34.552 58.7425 34.352 58.7425 34.192H58.9825V37H49.1425V36.76ZM69.6469 36.136C69.5189 36.136 69.3989 36.168 69.2869 36.232C69.1749 36.28 69.0469 36.344 68.9029 36.424C68.6309 36.584 68.2869 36.752 67.8709 36.928C67.4549 37.088 66.9109 37.168 66.2389 37.168C65.4229 37.168 64.6629 37.04 63.9589 36.784C63.2709 36.512 62.6709 36.144 62.1589 35.68C61.6629 35.2 61.2709 34.648 60.9829 34.024C60.7109 33.384 60.5749 32.696 60.5749 31.96C60.5749 31.272 60.6949 30.616 60.9349 29.992C61.1909 29.368 61.5509 28.816 62.0149 28.336C62.4789 27.856 63.0469 27.472 63.7189 27.184C64.4069 26.896 65.1829 26.752 66.0469 26.752C66.6389 26.752 67.1189 26.824 67.4869 26.968C67.8549 27.096 68.1669 27.224 68.4229 27.352C68.5669 27.432 68.7029 27.496 68.8309 27.544C68.9749 27.592 69.1189 27.616 69.2629 27.616V29.44H69.0229C68.9429 29.136 68.7989 28.872 68.5909 28.648C68.3829 28.408 68.1429 28.208 67.8709 28.048C67.5989 27.888 67.3029 27.768 66.9829 27.688C66.6629 27.608 66.3509 27.568 66.0469 27.568C65.3909 27.568 64.8149 27.688 64.3189 27.928C63.8229 28.152 63.4149 28.456 63.0949 28.84C62.7749 29.208 62.5349 29.632 62.3749 30.112C62.2149 30.592 62.1349 31.088 62.1349 31.6C62.1349 32.192 62.2309 32.776 62.4229 33.352C62.6149 33.912 62.8869 34.416 63.2389 34.864C63.6069 35.312 64.0469 35.672 64.5589 35.944C65.0709 36.216 65.6469 36.352 66.2869 36.352C66.7349 36.352 67.1429 36.288 67.5109 36.16C67.8949 36.032 68.2149 35.864 68.4709 35.656C68.7429 35.448 68.9589 35.224 69.1189 34.984C69.2789 34.728 69.3749 34.488 69.4069 34.264H69.6469V36.136ZM76.2841 37.168C75.4841 37.168 74.7641 37.04 74.1241 36.784C73.4841 36.512 72.9321 36.152 72.4681 35.704C72.0201 35.24 71.6681 34.696 71.4121 34.072C71.1721 33.448 71.0521 32.768 71.0521 32.032C71.0521 31.248 71.1881 30.536 71.4601 29.896C71.7321 29.24 72.1081 28.68 72.5881 28.216C73.0681 27.752 73.6361 27.392 74.2921 27.136C74.9481 26.88 75.6601 26.752 76.4281 26.752C77.1961 26.752 77.9001 26.88 78.5401 27.136C79.1801 27.376 79.7321 27.72 80.1961 28.168C80.6601 28.616 81.0201 29.152 81.2761 29.776C81.5321 30.384 81.6601 31.056 81.6601 31.792C81.6601 32.48 81.5401 33.152 81.3001 33.808C81.0761 34.448 80.7321 35.016 80.2681 35.512C79.8201 36.008 79.2601 36.408 78.5881 36.712C77.9321 37.016 77.1641 37.168 76.2841 37.168ZM76.1401 27.544C75.5641 27.576 75.0521 27.72 74.6041 27.976C74.1721 28.216 73.8041 28.536 73.5001 28.936C73.2121 29.32 72.9881 29.76 72.8281 30.256C72.6841 30.752 72.6121 31.256 72.6121 31.768C72.6121 32.36 72.7001 32.936 72.8761 33.496C73.0681 34.04 73.3321 34.528 73.6681 34.96C74.0201 35.392 74.4361 35.736 74.9161 35.992C75.3961 36.248 75.9321 36.376 76.5241 36.376C77.1161 36.376 77.6361 36.248 78.0841 35.992C78.5481 35.736 78.9321 35.408 79.2361 35.008C79.5401 34.592 79.7641 34.128 79.9081 33.616C80.0681 33.104 80.1481 32.592 80.1481 32.08C80.1481 31.552 80.0681 31.024 79.9081 30.496C79.7481 29.952 79.5001 29.464 79.1641 29.032C78.8281 28.584 78.4041 28.224 77.8921 27.952C77.3961 27.68 76.8121 27.544 76.1401 27.544ZM93.5266 32.752C93.5266 33.552 93.3666 34.24 93.0466 34.816C92.7266 35.376 92.3106 35.832 91.7986 36.184C91.3026 36.536 90.7346 36.792 90.0946 36.952C89.4706 37.112 88.8466 37.192 88.2226 37.192C87.5826 37.192 87.0306 37.128 86.5666 37C86.1026 36.872 85.6786 36.752 85.2946 36.64C85.0386 36.56 84.8066 36.496 84.5986 36.448C84.3906 36.384 84.1826 36.352 83.9746 36.352V33.616H84.2146C84.2146 34.224 84.3666 34.712 84.6706 35.08C84.9906 35.432 85.3586 35.704 85.7746 35.896C86.1906 36.088 86.6066 36.216 87.0226 36.28C87.4386 36.328 87.7426 36.352 87.9346 36.352C88.6226 36.352 89.2146 36.256 89.7106 36.064C90.2066 35.856 90.6146 35.592 90.9346 35.272C91.2546 34.936 91.4866 34.568 91.6306 34.168C91.7906 33.768 91.8706 33.36 91.8706 32.944C91.8706 32.416 91.7586 31.976 91.5346 31.624C91.3106 31.256 91.0146 30.936 90.6466 30.664C90.2946 30.392 89.8866 30.16 89.4226 29.968C88.9586 29.776 88.4866 29.584 88.0066 29.392C87.4626 29.184 86.9266 28.968 86.3986 28.744C85.8706 28.52 85.3986 28.248 84.9826 27.928C84.5666 27.592 84.2306 27.2 83.9746 26.752C83.7186 26.288 83.5906 25.72 83.5906 25.048C83.5906 24.344 83.7266 23.736 83.9986 23.224C84.2706 22.696 84.6306 22.264 85.0786 21.928C85.5426 21.592 86.0626 21.344 86.6386 21.184C87.2306 21.008 87.8306 20.92 88.4386 20.92C88.8546 20.92 89.2466 20.952 89.6146 21.016C89.9826 21.064 90.3346 21.128 90.6706 21.208C90.9426 21.272 91.2066 21.328 91.4626 21.376C91.7186 21.408 91.9666 21.424 92.2066 21.424V23.896H91.9666C91.9346 23.064 91.6066 22.504 90.9826 22.216C90.3586 21.912 89.4946 21.76 88.3906 21.76C87.7506 21.76 87.2226 21.872 86.8066 22.096C86.4066 22.304 86.0866 22.568 85.8466 22.888C85.6066 23.192 85.4386 23.528 85.3426 23.896C85.2626 24.248 85.2226 24.56 85.2226 24.832C85.2226 25.28 85.3186 25.664 85.5106 25.984C85.7186 26.304 85.9906 26.584 86.3266 26.824C86.6626 27.064 87.0466 27.28 87.4786 27.472C87.9266 27.664 88.3906 27.848 88.8706 28.024C89.4146 28.232 89.9666 28.456 90.5266 28.696C91.0866 28.936 91.5826 29.232 92.0146 29.584C92.4626 29.936 92.8226 30.368 93.0946 30.88C93.3826 31.392 93.5266 32.016 93.5266 32.752ZM101.908 37V35.776L101.788 35.896C101.388 36.296 100.924 36.608 100.396 36.832C99.8842 37.056 99.2602 37.168 98.5242 37.168C97.9642 37.168 97.4842 37.104 97.0842 36.976C96.6842 36.848 96.3562 36.672 96.1002 36.448C95.8442 36.208 95.6522 35.936 95.5242 35.632C95.4122 35.328 95.3562 35.008 95.3562 34.672C95.3562 34.128 95.5002 33.648 95.7882 33.232C96.0922 32.816 96.5242 32.448 97.0842 32.128C97.6442 31.808 98.3242 31.52 99.1242 31.264C99.9402 30.992 100.868 30.728 101.908 30.472C101.876 29.848 101.748 29.344 101.524 28.96C101.3 28.576 101.036 28.28 100.732 28.072C100.428 27.848 100.108 27.704 99.7722 27.64C99.4362 27.56 99.1482 27.52 98.9082 27.52C98.4922 27.52 98.1242 27.584 97.8042 27.712C97.5002 27.84 97.2282 28.008 96.9882 28.216C96.7642 28.408 96.5722 28.624 96.4122 28.864C96.2522 29.088 96.1242 29.304 96.0282 29.512H95.8122V27.76C95.9402 27.744 96.0602 27.704 96.1722 27.64C96.2842 27.576 96.4202 27.512 96.5802 27.448C96.8202 27.352 97.1482 27.216 97.5642 27.04C97.9802 26.848 98.5642 26.752 99.3162 26.752C100.196 26.752 100.908 26.864 101.452 27.088C101.996 27.312 102.412 27.608 102.7 27.976C103.004 28.344 103.204 28.768 103.3 29.248C103.396 29.712 103.444 30.192 103.444 30.688V35.44C103.444 35.76 103.516 36.064 103.66 36.352C103.804 36.624 103.996 36.76 104.236 36.76V37H101.908ZM101.908 34.72V31.288L101.668 31.336C101.284 31.432 100.812 31.56 100.252 31.72C99.7082 31.88 99.1882 32.088 98.6922 32.344C98.1962 32.6 97.7722 32.904 97.4202 33.256C97.0682 33.608 96.8922 34.016 96.8922 34.48C96.8922 34.992 97.1002 35.416 97.5162 35.752C97.9322 36.088 98.4762 36.256 99.1482 36.256C99.6762 36.256 100.14 36.144 100.54 35.92C100.94 35.68 101.308 35.376 101.644 35.008L101.908 34.72ZM108.773 27.736V35.44C108.773 35.568 108.789 35.712 108.821 35.872C108.853 36.016 108.901 36.152 108.965 36.28C109.045 36.408 109.125 36.52 109.205 36.616C109.301 36.712 109.413 36.76 109.541 36.76V37H106.421V36.76C106.533 36.76 106.637 36.712 106.733 36.616C106.829 36.52 106.909 36.408 106.973 36.28C107.053 36.152 107.109 36.016 107.141 35.872C107.173 35.712 107.189 35.568 107.189 35.44V27.736H105.989V26.92H107.189V24.976C107.189 24.48 107.205 24 107.237 23.536C107.269 23.072 107.365 22.656 107.525 22.288C107.685 21.92 107.925 21.624 108.245 21.4C108.581 21.176 109.037 21.064 109.613 21.064C109.933 21.064 110.205 21.104 110.429 21.184C110.669 21.248 110.869 21.328 111.029 21.424C111.205 21.504 111.349 21.584 111.461 21.664C111.573 21.728 111.669 21.76 111.749 21.76V23.512H111.533C111.453 23.048 111.245 22.664 110.909 22.36C110.573 22.04 110.237 21.88 109.901 21.88C109.437 21.88 109.133 22.128 108.989 22.624C108.845 23.104 108.773 23.776 108.773 24.64V26.92H111.485V27.736H108.773ZM114.588 32.152C114.652 32.712 114.788 33.248 114.996 33.76C115.204 34.256 115.476 34.696 115.812 35.08C116.164 35.464 116.588 35.776 117.084 36.016C117.58 36.24 118.156 36.352 118.812 36.352C119.164 36.352 119.532 36.304 119.916 36.208C120.316 36.096 120.684 35.944 121.02 35.752C121.356 35.56 121.652 35.328 121.908 35.056C122.18 34.768 122.364 34.448 122.46 34.096H122.676V35.896C122.58 35.896 122.468 35.928 122.34 35.992C122.228 36.056 122.092 36.136 121.932 36.232C121.612 36.424 121.18 36.632 120.636 36.856C120.092 37.064 119.372 37.168 118.476 37.168C117.756 37.168 117.068 37.064 116.412 36.856C115.772 36.648 115.204 36.328 114.708 35.896C114.212 35.464 113.812 34.912 113.508 34.24C113.22 33.568 113.076 32.768 113.076 31.84C113.076 31.248 113.172 30.648 113.364 30.04C113.572 29.432 113.876 28.888 114.276 28.408C114.692 27.912 115.22 27.512 115.86 27.208C116.5 26.904 117.268 26.752 118.164 26.752C118.964 26.752 119.66 26.888 120.252 27.16C120.86 27.432 121.356 27.808 121.74 28.288C122.14 28.768 122.436 29.336 122.628 29.992C122.82 30.648 122.916 31.368 122.916 32.152H114.588ZM118.068 27.544C117.508 27.544 117.02 27.656 116.604 27.88C116.204 28.104 115.86 28.392 115.572 28.744C115.284 29.096 115.06 29.496 114.9 29.944C114.74 30.392 114.636 30.84 114.588 31.288H121.428C121.412 30.824 121.324 30.368 121.164 29.92C121.02 29.472 120.812 29.072 120.54 28.72C120.268 28.368 119.924 28.088 119.508 27.88C119.092 27.656 118.612 27.544 118.068 27.544ZM131.246 21.16H134.678V21.4H134.558C134.446 21.4 134.342 21.448 134.246 21.544C134.15 21.624 134.07 21.728 134.006 21.856C133.942 21.968 133.886 22.104 133.838 22.264C133.806 22.408 133.79 22.536 133.79 22.648V35.44C133.79 35.568 133.806 35.712 133.838 35.872C133.87 36.016 133.918 36.152 133.982 36.28C134.062 36.408 134.142 36.52 134.222 36.616C134.318 36.712 134.43 36.76 134.558 36.76H134.678V37H131.246V36.76H131.366C131.494 36.76 131.606 36.72 131.702 36.64C131.798 36.544 131.878 36.432 131.942 36.304C132.022 36.16 132.078 36.016 132.11 35.872C132.142 35.712 132.158 35.568 132.158 35.44V22.648C132.158 22.536 132.142 22.408 132.11 22.264C132.078 22.12 132.022 21.984 131.942 21.856C131.878 21.728 131.798 21.624 131.702 21.544C131.606 21.448 131.494 21.4 131.366 21.4H131.246V21.16ZM146.634 35.44C146.634 35.568 146.65 35.712 146.682 35.872C146.714 36.016 146.762 36.152 146.826 36.28C146.906 36.408 146.986 36.52 147.066 36.616C147.162 36.712 147.274 36.76 147.402 36.76V37H144.306V36.76C144.418 36.76 144.522 36.712 144.618 36.616C144.714 36.52 144.794 36.408 144.858 36.28C144.938 36.152 144.994 36.016 145.026 35.872C145.058 35.712 145.074 35.568 145.074 35.44V30.976C145.074 30.4 144.994 29.896 144.834 29.464C144.674 29.032 144.458 28.672 144.186 28.384C143.914 28.096 143.602 27.888 143.25 27.76C142.914 27.616 142.57 27.544 142.218 27.544C141.866 27.544 141.514 27.616 141.162 27.76C140.826 27.904 140.522 28.096 140.25 28.336C139.994 28.56 139.778 28.832 139.602 29.152C139.442 29.456 139.362 29.776 139.362 30.112V35.44C139.362 35.568 139.378 35.712 139.41 35.872C139.442 36.016 139.49 36.152 139.554 36.28C139.634 36.408 139.714 36.52 139.794 36.616C139.89 36.712 140.002 36.76 140.13 36.76V37H137.01V36.76C137.122 36.76 137.226 36.712 137.322 36.616C137.418 36.52 137.498 36.408 137.562 36.28C137.642 36.152 137.698 36.016 137.73 35.872C137.762 35.712 137.778 35.568 137.778 35.44V28.816C137.778 28.544 137.738 28.288 137.658 28.048C137.578 27.792 137.346 27.656 136.962 27.64V27.424L139.362 26.656V27.976C139.474 27.848 139.618 27.712 139.794 27.568C139.97 27.408 140.178 27.264 140.418 27.136C140.674 26.992 140.962 26.88 141.282 26.8C141.618 26.704 142.01 26.656 142.458 26.656C143.21 26.656 143.85 26.784 144.378 27.04C144.906 27.296 145.338 27.632 145.674 28.048C146.01 28.448 146.25 28.896 146.394 29.392C146.554 29.872 146.634 30.344 146.634 30.808V35.44ZM157.56 34.264C157.56 34.68 157.456 35.064 157.248 35.416C157.04 35.768 156.752 36.08 156.384 36.352C156.032 36.608 155.616 36.816 155.136 36.976C154.656 37.12 154.136 37.192 153.576 37.192C152.888 37.192 152.328 37.104 151.896 36.928C151.464 36.736 151.096 36.544 150.792 36.352C150.584 36.224 150.392 36.12 150.216 36.04C150.04 35.944 149.848 35.896 149.64 35.896V34.072H149.88C149.928 34.296 150.064 34.544 150.288 34.816C150.528 35.072 150.808 35.312 151.128 35.536C151.464 35.76 151.824 35.952 152.208 36.112C152.608 36.256 153.008 36.328 153.408 36.328C153.696 36.328 153.992 36.296 154.296 36.232C154.6 36.168 154.872 36.064 155.112 35.92C155.368 35.776 155.576 35.6 155.736 35.392C155.912 35.168 156 34.904 156 34.6C156 34.296 155.912 34.032 155.736 33.808C155.56 33.584 155.336 33.392 155.064 33.232C154.792 33.056 154.48 32.904 154.128 32.776C153.776 32.648 153.424 32.528 153.072 32.416C152.656 32.288 152.232 32.144 151.8 31.984C151.384 31.824 151.008 31.64 150.672 31.432C150.336 31.208 150.064 30.944 149.856 30.64C149.648 30.32 149.544 29.944 149.544 29.512C149.544 29.144 149.608 28.792 149.736 28.456C149.88 28.12 150.104 27.832 150.408 27.592C150.728 27.336 151.136 27.136 151.632 26.992C152.128 26.832 152.728 26.752 153.432 26.752C154.056 26.752 154.536 26.808 154.872 26.92C155.224 27.016 155.512 27.12 155.736 27.232C155.88 27.312 156.024 27.376 156.168 27.424C156.312 27.456 156.472 27.472 156.648 27.472V29.152H156.456C156.168 28.624 155.728 28.224 155.136 27.952C154.544 27.68 153.936 27.544 153.312 27.544C152.912 27.544 152.568 27.6 152.28 27.712C151.992 27.808 151.752 27.936 151.56 28.096C151.384 28.24 151.248 28.408 151.152 28.6C151.072 28.792 151.032 28.984 151.032 29.176C151.032 29.448 151.104 29.68 151.248 29.872C151.408 30.064 151.616 30.232 151.872 30.376C152.144 30.52 152.44 30.656 152.76 30.784C153.096 30.912 153.448 31.032 153.816 31.144C154.264 31.288 154.712 31.448 155.16 31.624C155.608 31.784 156.008 31.984 156.36 32.224C156.712 32.464 157 32.752 157.224 33.088C157.448 33.408 157.56 33.8 157.56 34.264ZM159.963 37V36.76C160.091 36.76 160.203 36.712 160.299 36.616C160.395 36.52 160.475 36.408 160.539 36.28C160.603 36.152 160.651 36.016 160.683 35.872C160.715 35.712 160.731 35.568 160.731 35.44V28.792C160.731 28.52 160.691 28.264 160.611 28.024C160.531 27.768 160.299 27.632 159.915 27.616V27.4L162.315 26.632V35.44C162.315 35.568 162.331 35.712 162.363 35.872C162.395 36.016 162.443 36.152 162.507 36.28C162.571 36.408 162.651 36.52 162.747 36.616C162.843 36.712 162.955 36.76 163.083 36.76V37H159.963ZM160.083 24.328C160.083 24.008 160.187 23.736 160.395 23.512C160.619 23.288 160.891 23.176 161.211 23.176C161.531 23.176 161.803 23.288 162.027 23.512C162.251 23.736 162.363 24.008 162.363 24.328C162.363 24.648 162.251 24.912 162.027 25.12C161.803 25.328 161.531 25.432 161.211 25.432C160.891 25.432 160.619 25.328 160.395 25.12C160.187 24.912 160.083 24.648 160.083 24.328ZM170.642 41.464C171.122 41.464 171.578 41.416 172.01 41.32C172.442 41.24 172.818 41.12 173.138 40.96C173.474 40.8 173.738 40.608 173.93 40.384C174.122 40.16 174.218 39.92 174.218 39.664C174.218 39.392 174.082 39.16 173.81 38.968C173.554 38.776 173.202 38.608 172.754 38.464C172.306 38.32 171.786 38.192 171.194 38.08C170.602 37.984 169.986 37.88 169.346 37.768L168.122 37.552C167.754 37.84 167.498 38.144 167.354 38.464C167.21 38.784 167.138 39.064 167.138 39.304C167.138 39.64 167.226 39.936 167.402 40.192C167.594 40.464 167.842 40.696 168.146 40.888C168.466 41.08 168.834 41.224 169.25 41.32C169.682 41.416 170.146 41.464 170.642 41.464ZM171.962 36.664C172.602 36.76 173.13 36.888 173.546 37.048C173.978 37.208 174.322 37.392 174.578 37.6C174.834 37.824 175.01 38.064 175.106 38.32C175.202 38.592 175.25 38.88 175.25 39.184C175.25 39.728 175.098 40.2 174.794 40.6C174.506 41 174.122 41.328 173.642 41.584C173.178 41.856 172.642 42.056 172.034 42.184C171.442 42.312 170.834 42.376 170.21 42.376C169.602 42.376 169.018 42.312 168.458 42.184C167.898 42.072 167.402 41.896 166.97 41.656C166.538 41.416 166.194 41.112 165.938 40.744C165.682 40.392 165.554 39.984 165.554 39.52C165.554 39.104 165.682 38.704 165.938 38.32C166.194 37.952 166.61 37.584 167.186 37.216C166.626 36.928 166.194 36.544 165.89 36.064C165.602 35.568 165.458 35.064 165.458 34.552C165.458 34.248 165.53 33.952 165.674 33.664C165.818 33.36 166.05 33.08 166.37 32.824C166.098 32.504 165.906 32.184 165.794 31.864C165.682 31.544 165.626 31.2 165.626 30.832C165.626 30.256 165.746 29.72 165.986 29.224C166.226 28.728 166.554 28.296 166.97 27.928C167.386 27.56 167.874 27.272 168.434 27.064C168.994 26.856 169.594 26.752 170.234 26.752C170.906 26.752 171.546 26.872 172.154 27.112C172.762 27.336 173.274 27.632 173.69 28H175.418V28.864H174.314C174.426 29.104 174.538 29.392 174.65 29.728C174.762 30.048 174.818 30.384 174.818 30.736C174.818 31.248 174.698 31.736 174.458 32.2C174.218 32.648 173.882 33.048 173.45 33.4C173.034 33.736 172.538 34.008 171.962 34.216C171.402 34.408 170.802 34.504 170.162 34.504C169.57 34.504 168.994 34.416 168.434 34.24C167.874 34.064 167.378 33.808 166.946 33.472C166.77 33.584 166.65 33.728 166.586 33.904C166.522 34.064 166.49 34.232 166.49 34.408C166.49 34.92 166.722 35.32 167.186 35.608C167.65 35.88 168.242 36.072 168.962 36.184L171.962 36.664ZM169.946 27.592C169.562 27.592 169.202 27.664 168.866 27.808C168.53 27.936 168.234 28.12 167.978 28.36C167.722 28.6 167.514 28.896 167.354 29.248C167.21 29.584 167.138 29.968 167.138 30.4C167.138 30.928 167.242 31.4 167.45 31.816C167.674 32.232 167.954 32.576 168.29 32.848C168.626 33.12 168.994 33.328 169.394 33.472C169.81 33.616 170.202 33.688 170.57 33.688C170.97 33.688 171.33 33.616 171.65 33.472C171.986 33.312 172.274 33.104 172.514 32.848C172.754 32.576 172.938 32.264 173.066 31.912C173.194 31.56 173.258 31.192 173.258 30.808C173.258 30.328 173.162 29.888 172.97 29.488C172.778 29.088 172.522 28.752 172.202 28.48C171.898 28.192 171.546 27.976 171.146 27.832C170.746 27.672 170.346 27.592 169.946 27.592ZM187.181 35.44C187.181 35.568 187.197 35.712 187.229 35.872C187.261 36.016 187.309 36.152 187.373 36.28C187.453 36.408 187.533 36.52 187.613 36.616C187.709 36.712 187.821 36.76 187.949 36.76V37H184.853V36.76C184.965 36.76 185.069 36.712 185.165 36.616C185.261 36.52 185.341 36.408 185.405 36.28C185.485 36.152 185.541 36.016 185.573 35.872C185.605 35.712 185.621 35.568 185.621 35.44V30.976C185.621 30.4 185.541 29.896 185.381 29.464C185.221 29.032 185.005 28.672 184.733 28.384C184.461 28.096 184.149 27.888 183.797 27.76C183.461 27.616 183.117 27.544 182.765 27.544C182.413 27.544 182.061 27.616 181.709 27.76C181.373 27.888 181.069 28.072 180.797 28.312C180.541 28.552 180.325 28.848 180.149 29.2C179.989 29.536 179.909 29.912 179.909 30.328V35.44C179.909 35.568 179.925 35.712 179.957 35.872C179.989 36.016 180.037 36.152 180.101 36.28C180.181 36.408 180.261 36.52 180.341 36.616C180.437 36.712 180.549 36.76 180.677 36.76V37H177.557V36.76C177.669 36.76 177.773 36.712 177.869 36.616C177.965 36.52 178.045 36.408 178.109 36.28C178.189 36.152 178.245 36.016 178.277 35.872C178.309 35.712 178.325 35.568 178.325 35.44V23.176C178.325 22.904 178.285 22.648 178.205 22.408C178.125 22.168 177.893 22.04 177.509 22.024V21.784L179.909 21.04V27.976C180.021 27.848 180.165 27.712 180.341 27.568C180.517 27.408 180.725 27.264 180.965 27.136C181.221 26.992 181.509 26.88 181.829 26.8C182.165 26.704 182.557 26.656 183.005 26.656C183.757 26.656 184.397 26.784 184.925 27.04C185.453 27.296 185.885 27.632 186.221 28.048C186.557 28.448 186.797 28.896 186.941 29.392C187.101 29.872 187.181 30.344 187.181 30.808V35.44ZM192.659 27.736V33.52C192.659 33.936 192.667 34.312 192.683 34.648C192.699 34.984 192.739 35.264 192.803 35.488C192.867 35.712 192.963 35.888 193.091 36.016C193.219 36.128 193.395 36.184 193.619 36.184C193.955 36.184 194.267 36.024 194.555 35.704C194.859 35.384 195.051 35 195.131 34.552H195.347V36.304C195.203 36.304 195.083 36.352 194.987 36.448C194.859 36.56 194.675 36.68 194.435 36.808C194.211 36.936 193.867 37 193.403 37C192.827 37 192.379 36.888 192.059 36.664C191.739 36.44 191.507 36.144 191.363 35.776C191.219 35.408 191.131 35 191.099 34.552C191.083 34.104 191.075 33.648 191.075 33.184V27.736H189.731V26.92H191.075V24.784C191.075 24.512 191.035 24.264 190.955 24.04C190.891 23.8 190.659 23.672 190.259 23.656V23.416L192.659 22.648V26.92H195.347V27.736H192.659ZM204.95 34.264C204.95 34.68 204.846 35.064 204.638 35.416C204.43 35.768 204.142 36.08 203.774 36.352C203.422 36.608 203.006 36.816 202.526 36.976C202.046 37.12 201.526 37.192 200.966 37.192C200.278 37.192 199.718 37.104 199.286 36.928C198.854 36.736 198.486 36.544 198.182 36.352C197.974 36.224 197.782 36.12 197.606 36.04C197.43 35.944 197.238 35.896 197.03 35.896V34.072H197.27C197.318 34.296 197.454 34.544 197.678 34.816C197.918 35.072 198.198 35.312 198.518 35.536C198.854 35.76 199.214 35.952 199.598 36.112C199.998 36.256 200.398 36.328 200.798 36.328C201.086 36.328 201.382 36.296 201.686 36.232C201.99 36.168 202.262 36.064 202.502 35.92C202.758 35.776 202.966 35.6 203.126 35.392C203.302 35.168 203.39 34.904 203.39 34.6C203.39 34.296 203.302 34.032 203.126 33.808C202.95 33.584 202.726 33.392 202.454 33.232C202.182 33.056 201.87 32.904 201.518 32.776C201.166 32.648 200.814 32.528 200.462 32.416C200.046 32.288 199.622 32.144 199.19 31.984C198.774 31.824 198.398 31.64 198.062 31.432C197.726 31.208 197.454 30.944 197.246 30.64C197.038 30.32 196.934 29.944 196.934 29.512C196.934 29.144 196.998 28.792 197.126 28.456C197.27 28.12 197.494 27.832 197.798 27.592C198.118 27.336 198.526 27.136 199.022 26.992C199.518 26.832 200.118 26.752 200.822 26.752C201.446 26.752 201.926 26.808 202.262 26.92C202.614 27.016 202.902 27.12 203.126 27.232C203.27 27.312 203.414 27.376 203.558 27.424C203.702 27.456 203.862 27.472 204.038 27.472V29.152H203.846C203.558 28.624 203.118 28.224 202.526 27.952C201.934 27.68 201.326 27.544 200.702 27.544C200.302 27.544 199.958 27.6 199.67 27.712C199.382 27.808 199.142 27.936 198.95 28.096C198.774 28.24 198.638 28.408 198.542 28.6C198.462 28.792 198.422 28.984 198.422 29.176C198.422 29.448 198.494 29.68 198.638 29.872C198.798 30.064 199.006 30.232 199.262 30.376C199.534 30.52 199.83 30.656 200.15 30.784C200.486 30.912 200.838 31.032 201.206 31.144C201.654 31.288 202.102 31.448 202.55 31.624C202.998 31.784 203.398 31.984 203.75 32.224C204.102 32.464 204.39 32.752 204.614 33.088C204.838 33.408 204.95 33.8 204.95 34.264Z" fill="black"/>
<path fill-rule="evenodd" clip-rule="evenodd" d="M32 13.8442V27.1982C32 28.6492 31.452 29.7982 30.551 30.5612C29.672 31.3042 28.538 31.6112 27.453 31.5652C26.199 31.5132 24.889 30.9682 24.009 29.9522C23.782 31.7822 24.436 32.9992 24.733 33.3202L25.413 34.0532L23.947 35.4132L23.267 34.6802C22.453 33.8022 21.579 31.7332 22.138 29.0302C21.2825 29.2094 20.3993 29.2115 19.543 29.0362C18.646 28.8462 17.764 28.4372 17.096 27.7502C16.412 27.0472 16 26.1002 16 24.9602C16 23.3162 16.587 22.1282 17.636 21.2602C18.606 20.4572 19.923 19.9752 21.255 19.5442C21.567 19.4442 21.8857 19.3432 22.211 19.2412C24.75 18.4442 27.635 17.5382 30.354 15.2382L32 13.8442ZM24.961 27.1362C25.382 26.3642 25.961 25.5382 26.743 24.6692L27.413 23.9262L25.926 22.5882L25.256 23.3312C24.266 24.4312 23.544 25.5012 23.032 26.5162C22.28 27.0682 21.07 27.3152 19.957 27.0792C19.354 26.9512 18.861 26.6962 18.529 26.3552C18.213 26.0312 18 25.5872 18 24.9592C18 23.8732 18.35 23.2642 18.911 22.7992C19.55 22.2712 20.515 21.8852 21.871 21.4462C22.1663 21.3516 22.475 21.2539 22.797 21.1532C24.876 20.5042 27.457 19.6982 30 18.0022V27.1982C30 28.1132 29.673 28.6842 29.26 29.0332C28.825 29.4012 28.207 29.5952 27.537 29.5672C26.209 29.5122 25.027 28.6432 24.961 27.1362Z" fill="black"/>
<path fill-rule="evenodd" clip-rule="evenodd" d="M24 41L23.564 41.9L23.56 41.898L23.548 41.892L23.505 41.871L23.345 41.791C23.207 41.721 23.007 41.617 22.754 41.481C19.7571 39.859 16.9396 37.9256 14.348 35.713C9.784 31.786 5 25.963 5 18.724C5 15.471 6.077 12.32 7.921 9.964C9.771 7.603 12.432 6 15.563 6C19.279 6 22.1 8.107 24 11.078C25.899 8.108 28.72 6 32.438 6C35.568 6 38.229 7.603 40.078 9.965C41.924 12.32 43 15.47 43 18.725C43 25.688 38.208 31.512 33.659 35.497C30.8941 37.8995 27.883 40.0032 24.676 41.773L24.517 41.858L24.474 41.881L24.463 41.887L24.458 41.889L24 41ZM9.496 11.197C7.941 13.183 7 15.894 7 18.724C7 25.066 11.216 30.381 15.652 34.197C18.2165 36.3849 21.0112 38.2874 23.987 39.871L24.281 39.707C27.1497 38.0731 29.8496 36.1591 32.341 33.993C36.791 30.093 41 24.78 41 18.723C41 15.893 40.059 13.183 38.504 11.197C36.954 9.218 34.834 8 32.438 8C29.124 8 26.558 10.167 24.898 13.56L24 15.397L23.102 13.562C21.442 10.167 18.876 8 15.562 8C13.166 8 11.046 9.218 9.496 11.197Z" fill="black"/>
<path d="M24 41L24.458 41.889L24.014 42.117L23.564 41.9L24 41Z" fill="black"/>
</svg>
